# xmcd
#
# Track frame offsets:
#	150
#	17404
#	31864
#	47181
#	63916
#	77431
#	93651
#	110398
#	125635
#	140114
#	149408
#
# Disc length: 2161 seconds
# Revision: 0
# Processed by: cddbd v1.5.2PL0 Copyright (c) Steve Scherf et al.
# Submitted via: dBpowerAMP V12.0
#
DISCID=94086f0b
DTITLE=Dale Ann Bradley - Dale Ann Bradley
DYEAR=2017
DGENRE=Country
TTITLE0=Southern Memories
TTITLE1=Champagne Lady
TTITLE2=One More River
TTITLE3=I'll Just Go Away
TTITLE4=Going Back To Kentucky
TTITLE5=If You Were Mine to Lose
TTITLE6=Our Last Goodbye
TTITLE7=Blackberry Summer
TTITLE8=This Is My Year For Mexico
TTITLE9=Stand By Me
TTITLE10=Now and Then (Dreams Do Come True)
EXTD=
EXTT0=
EXTT1=
EXTT2=
EXTT3=
EXTT4=
EXTT5=
EXTT6=
EXTT7=
EXTT8=
EXTT9=
EXTT10=
PLAYORDER=
